<?xml version="1.0" encoding="utf-8"?><svg xmlns="http://www.w3.org/2000/svg" xmlns:xlink="http://www.w3.org/1999/xlink"><symbol viewBox="0 0 2000 1600" id="ico-cards" xmlns="http://www.w3.org/2000/svg"><path d="M365 1580c-56-26-70-45-98-125-13-39-71-203-129-365C79 928 25 770 16 739c-35-122-9-232 62-268 40-20 1168-429 1242-451 82-23 163-24 214-1 58 25 72 49 137 230 70 196 66 191 137 191 82 0 140 31 169 90 21 44 22 53 22 493 1 428 0 450-19 492-16 35-29 48-66 65-46 20-63 20-778 20-696-1-733-2-771-20zm1475-140c19-19 20-31 18-238l-3-217H425l-3 217c-2 207-1 219 18 238 20 20 31 20 700 20s680 0 700-20zm18-776c2-25-3-37-24-53l-27-21-679 2c-660 3-680 4-694 22-15 21-19 68-7 79 3 4 326 6 717 5l711-3 3-31z"/><path d="M505 1367c-3-7-4-80-3-162l3-150h320v320l-158 3c-123 2-159 0-162-11z"/></symbol><symbol viewBox="0 0 3830 2470" id="ico-mail" xmlns="http://www.w3.org/2000/svg"><path d="M0 1235V0h3830v2470H0V1235zm3770 148V347l-22 20c-13 11-79 66-147 124-68 57-203 171-300 254-97 82-235 199-307 260-72 60-258 218-414 350-602 510-667 565-675 565s-118-92-436-365c-230-197-714-612-769-658-14-12-73-63-131-114-59-50-109-89-113-86-3 4-6 1-6-5s-62-63-138-127c-75-64-167-143-204-176l-68-60v2091h3730V1383zm-1729 135c47-40 213-181 369-313s361-305 455-385 325-275 514-435l343-290-907-3c-499-1-1312-1-1807 0l-900 3 158 135c87 74 189 162 228 195 58 49 876 750 1051 900 28 23 119 102 204 174l153 131 27-19c14-11 65-52 112-93z"/><path d="M40 1374V329l68 60c37 33 129 112 204 176 76 64 138 121 138 127s3 9 6 5c4-3 54 36 113 86 58 51 117 102 131 114 55 46 539 461 769 658 318 273 428 365 436 365s73-55 675-565c156-132 342-290 414-350 72-61 210-178 307-260 97-83 232-197 300-254 68-58 134-113 147-124l22-20v2073H40V1374z"/><path d="M1749 1499c-85-72-176-151-204-174-175-150-993-851-1051-900-39-33-141-121-228-195L108 95l900-3c495-1 1308-1 1807 0l907 3-343 290c-189 160-420 355-514 435s-299 253-455 385-322 273-369 313c-47 41-98 82-112 93l-27 19-153-131z"/></symbol><symbol viewBox="0 0 1790 1810" id="ico-re" xmlns="http://www.w3.org/2000/svg"><path d="M882 1608l3-201 83-18c213-46 369-205 405-413 24-142-30-295-142-406-103-102-214-150-348-150-107 0-208 42-311 128l-54 45 102 102c59 59 100 108 96 114-5 8-113 11-362 11H0V79l28 20c15 11 62 55 106 99l79 80 72-61c84-72 160-119 244-153 176-71 507-77 689-13 215 76 414 263 508 475 38 86 64 241 64 379 0 272-66 453-229 627-139 148-274 225-455 258-61 11-136 20-168 20h-58l2-202z"/></symbol><symbol viewBox="0 0 5120 4160" id="ico-twi" xmlns="http://www.w3.org/2000/svg"><path d="M1205 4140c-336-37-642-131-964-295C75 3760 0 3711 0 3687c0-17 5-19 47-12 81 12 363 7 473-9 235-34 467-104 658-200 118-59 311-182 312-197 0-3-28-9-62-12-329-32-653-263-807-573-49-100-66-153-53-166 6-6 42-6 103 1 119 13 322-5 268-23-160-56-261-112-375-205-207-171-349-453-370-734-8-116-3-122 83-82 102 48 261 95 319 95 8 0-20-32-62-72-41-39-97-101-125-137-208-278-264-661-146-1006 36-103 74-175 95-175 9 0 39 27 67 61 76 92 288 296 403 387 446 354 972 570 1540 632 66 8 117 9 122 4 4-5 3-40-2-79-15-107-4-294 25-406 99-384 410-686 782-759 92-18 342-24 421-10 38 6 95 16 126 20 108 16 315 129 425 233l52 49 53-12c124-28 340-108 466-172 88-44 139-65 146-58 14 14-8 80-61 182-59 115-123 197-229 296l-87 81 89-20c115-25 179-43 289-84 130-48 135-49 135-31 0 20-53 110-98 166-71 87-228 244-318 315l-91 73-6 214c-3 117-13 260-22 318-134 886-606 1645-1315 2118-136 91-413 232-560 286-350 128-588 166-1055 172-222 2-315-1-450-16z"/></symbol><symbol viewBox="0 0 1200 730" id="ico-vk" xmlns="http://www.w3.org/2000/svg"><path d="M526 719c-44-6-86-19-115-36-99-58-262-247-333-388C33 208 0 111 0 69V32l93-4c54-3 102 0 117 6 15 7 59 65 116 156 51 80 99 146 107 148 18 4 23-19 32-134 7-89-3-114-50-114-34 0-38-14-12-38 42-40 90-52 200-52 85 0 107 3 118 17 10 11 15 55 16 156 1 78 5 147 7 154 12 31 35 6 88-100 32-61 74-133 93-160l35-47h85c110 0 155 17 155 58 0 45-22 89-94 190-101 140-101 126-11 213 88 85 105 112 105 168 0 64-15 71-141 71H950l-81-70c-80-68-113-83-146-62-15 9-33 56-33 85 0 12-4 27-8 33-11 17-79 23-156 13z"/></symbol></svg>