<!DOCTYPE svg PUBLIC "-//W3C//DTD SVG 20010904//EN" "http://www.w3.org/TR/2001/REC-SVG-20010904/DTD/svg10.dtd">
<svg version="1.0" xmlns="http://www.w3.org/2000/svg" width="179px" height="181px" viewBox="0 0 1790 1810" preserveAspectRatio="xMidYMid meet">
<g id="layer1" fill="#000000" stroke="none">
 <path d="M882 1608 l3 -201 83 -18 c213 -46 369 -205 405 -413 24 -142 -30 -295 -142 -406 -103 -102 -214 -150 -348 -150 -107 0 -208 42 -311 128 l-54 45 102 102 c59 59 100 108 96 114 -5 8 -113 11 -362 11 l-354 0 0 -371 0 -370 28 20 c15 11 62 55 106 99 l79 80 72 -61 c84 -72 160 -119 244 -153 176 -71 507 -77 689 -13 215 76 414 263 508 475 38 86 64 241 64 379 0 272 -66 453 -229 627 -139 148 -274 225 -455 258 -61 11 -136 20 -168 20 l-58 0 2 -202z"/>
 </g>

</svg>