<!DOCTYPE svg PUBLIC "-//W3C//DTD SVG 20010904//EN" "http://www.w3.org/TR/2001/REC-SVG-20010904/DTD/svg10.dtd">
<svg version="1.0" xmlns="http://www.w3.org/2000/svg" width="200px" height="160px" viewBox="0 0 2000 1600" preserveAspectRatio="xMidYMid meet">
<g id="layer1" fill="#000000" stroke="none">
 <path d="M365 1580 c-56 -26 -70 -45 -98 -125 -13 -39 -71 -203 -129 -365 -59 -162 -113 -320 -122 -351 -35 -122 -9 -232 62 -268 40 -20 1168 -429 1242 -451 82 -23 163 -24 214 -1 58 25 72 49 137 230 70 196 66 191 137 191 82 0 140 31 169 90 21 44 22 53 22 493 1 428 0 450 -19 492 -16 35 -29 48 -66 65 -46 20 -63 20 -778 20 -696 -1 -733 -2 -771 -20z m1475 -140 c19 -19 20 -31 18 -238 l-3 -217 -715 0 -715 0 -3 217 c-2 207 -1 219 18 238 20 20 31 20 700 20 669 0 680 0 700 -20z m18 -776 c2 -25 -3 -37 -24 -53 l-27 -21 -679 2 c-660 3 -680 4 -694 22 -15 21 -19 68 -7 79 3 4 326 6 717 5 l711 -3 3 -31z"/>
 <path d="M505 1367 c-3 -7 -4 -80 -3 -162 l3 -150 160 0 160 0 0 160 0 160 -158 3 c-123 2 -159 0 -162 -11z"/>
 </g>

</svg>