<!DOCTYPE svg PUBLIC "-//W3C//DTD SVG 20010904//EN" "http://www.w3.org/TR/2001/REC-SVG-20010904/DTD/svg10.dtd">
<svg version="1.0" xmlns="http://www.w3.org/2000/svg" width="512px" height="416px" viewBox="0 0 5120 4160" preserveAspectRatio="xMidYMid meet">
<g id="layer1" fill="#010101" stroke="none">
 <path d="M1205 4140 c-336 -37 -642 -131 -964 -295 -166 -85 -241 -134 -241 -158 0 -17 5 -19 47 -12 81 12 363 7 473 -9 235 -34 467 -104 658 -200 118 -59 311 -182 312 -197 0 -3 -28 -9 -62 -12 -329 -32 -653 -263 -807 -573 -49 -100 -66 -153 -53 -166 6 -6 42 -6 103 1 119 13 322 -5 268 -23 -160 -56 -261 -112 -375 -205 -207 -171 -349 -453 -370 -734 -8 -116 -3 -122 83 -82 102 48 261 95 319 95 8 0 -20 -32 -62 -72 -41 -39 -97 -101 -125 -137 -208 -278 -264 -661 -146 -1006 36 -103 74 -175 95 -175 9 0 39 27 67 61 76 92 288 296 403 387 446 354 972 570 1540 632 66 8 117 9 122 4 4 -5 3 -40 -2 -79 -15 -107 -4 -294 25 -406 99 -384 410 -686 782 -759 92 -18 342 -24 421 -10 38 6 95 16 126 20 108 16 315 129 425 233 l52 49 53 -12 c124 -28 340 -108 466 -172 88 -44 139 -65 146 -58 14 14 -8 80 -61 182 -59 115 -123 197 -229 296 l-87 81 89 -20 c115 -25 179 -43 289 -84 130 -48 135 -49 135 -31 0 20 -53 110 -98 166 -71 87 -228 244 -318 315 l-91 73 -6 214 c-3 117 -13 260 -22 318 -134 886 -606 1645 -1315 2118 -136 91 -413 232 -560 286 -350 128 -588 166 -1055 172 -222 2 -315 -1 -450 -16z"/>
 </g>

</svg>