<!DOCTYPE svg PUBLIC "-//W3C//DTD SVG 20010904//EN" "http://www.w3.org/TR/2001/REC-SVG-20010904/DTD/svg10.dtd">
<svg version="1.0" xmlns="http://www.w3.org/2000/svg" width="120px" height="73px" viewBox="0 0 1200 730" preserveAspectRatio="xMidYMid meet">
<g id="layer1" fill="#000000" stroke="none">
 <path d="M526 719 c-44 -6 -86 -19 -115 -36 -99 -58 -262 -247 -333 -388 -45 -87 -78 -184 -78 -226 l0 -37 93 -4 c54 -3 102 0 117 6 15 7 59 65 116 156 51 80 99 146 107 148 18 4 23 -19 32 -134 7 -89 -3 -114 -50 -114 -34 0 -38 -14 -12 -38 42 -40 90 -52 200 -52 85 0 107 3 118 17 10 11 15 55 16 156 1 78 5 147 7 154 12 31 35 6 88 -100 32 -61 74 -133 93 -160 l35 -47 85 0 c110 0 155 17 155 58 0 45 -22 89 -94 190 -101 140 -101 126 -11 213 88 85 105 112 105 168 0 64 -15 71 -141 71 l-109 0 -81 -70 c-80 -68 -113 -83 -146 -62 -15 9 -33 56 -33 85 0 12 -4 27 -8 33 -11 17 -79 23 -156 13z"/>
 </g>

</svg>