<!DOCTYPE svg PUBLIC "-//W3C//DTD SVG 20010904//EN" "http://www.w3.org/TR/2001/REC-SVG-20010904/DTD/svg10.dtd">
<svg version="1.0" xmlns="http://www.w3.org/2000/svg" width="383px" height="247px" viewBox="0 0 3830 2470" preserveAspectRatio="xMidYMid meet">
<g id="layer1" fill="#f2f2f2" stroke="none">
 <path d="M0 1235 l0 -1235 1915 0 1915 0 0 1235 0 1235 -1915 0 -1915 0 0 -1235z m3770 148 l0 -1036 -22 20 c-13 11 -79 66 -147 124 -68 57 -203 171 -300 254 -97 82 -235 199 -307 260 -72 60 -258 218 -414 350 -602 510 -667 565 -675 565 -8 0 -118 -92 -436 -365 -230 -197 -714 -612 -769 -658 -14 -12 -73 -63 -131 -114 -59 -50 -109 -89 -113 -86 -3 4 -6 1 -6 -5 0 -6 -62 -63 -138 -127 -75 -64 -167 -143 -204 -176 l-68 -60 0 1045 0 1046 1865 0 1865 0 0 -1037z m-1729 135 c47 -40 213 -181 369 -313 156 -132 361 -305 455 -385 94 -80 325 -275 514 -435 l343 -290 -907 -3 c-499 -1 -1312 -1 -1807 0 l-900 3 158 135 c87 74 189 162 228 195 58 49 876 750 1051 900 28 23 119 102 204 174 l153 131 27 -19 c14 -11 65 -52 112 -93z"/>
 </g>
<g id="layer2" fill="#000000" stroke="none">
 <path d="M40 1374 l0 -1045 68 60 c37 33 129 112 204 176 76 64 138 121 138 127 0 6 3 9 6 5 4 -3 54 36 113 86 58 51 117 102 131 114 55 46 539 461 769 658 318 273 428 365 436 365 8 0 73 -55 675 -565 156 -132 342 -290 414 -350 72 -61 210 -178 307 -260 97 -83 232 -197 300 -254 68 -58 134 -113 147 -124 l22 -20 0 1036 0 1037 -1865 0 -1865 0 0 -1046z"/>
 <path d="M1749 1499 c-85 -72 -176 -151 -204 -174 -175 -150 -993 -851 -1051 -900 -39 -33 -141 -121 -228 -195 l-158 -135 900 -3 c495 -1 1308 -1 1807 0 l907 3 -343 290 c-189 160 -420 355 -514 435 -94 80 -299 253 -455 385 -156 132 -322 273 -369 313 -47 41 -98 82 -112 93 l-27 19 -153 -131z"/>
 </g>

</svg>